<?xml version="1.0" encoding="utf-8"?>
<!-- Generator: Adobe Illustrator 27.9.0, SVG Export Plug-In . SVG Version: 6.00 Build 0)  -->
<svg version="1.1" id="katman_1" xmlns="http://www.w3.org/2000/svg" xmlns:xlink="http://www.w3.org/1999/xlink" x="0px" y="0px"
	 viewBox="0 0 1920 1920" style="enable-background:new 0 0 1920 1920;" xml:space="preserve">
<style type="text/css">
	.st0{fill:#FEFEFE;}
	.st1{fill:#DEDBE0;}
	.st2{fill:#A8A9AE;}
</style>
<path d="M149.48,411.67c53.62-27.63,103.28-35.92,154.24-59.79c48.05-22.49,124.92-120.72,189.22-99.36l-21.7,50.32
	c133.09-65.92,221.36-42.76,349.65,16.77l-19.19-37.51l-5.44-9.21c13.93-7.51,50.32-3.45,69.04-3.14
	c144.93,2.32,287.32,22.59,426.48,64.12c69.8,20.53,138.43,44.92,205.57,72.97c4.88,98.75,3.72,186.12-0.45,284.92
	c0.22,17.29,0.7,31.95-0.95,49.3c5.57,25.88,67.79,119.48,84.49,146.03c71.86,25.01,221.85,47.86,265.26,114.34
	c16.25,24.85,15.07,106.77,23.15,137.03c23.1,78.27,41.95,84.96,29.25,168.21c-7.42,19.55-16.38,41.22-22.14,61.03
	c-4.33,7.1-15.28,26.4-24.35,26.91c-68.93,3.86-138.95,1.9-208.08,1.75c-136.29,1.03-272.59,1.29-408.89,0.72
	c-123.21,136.36-276.33,273.54-454.66,330.97c-197.08-75.9-365.73-211.13-482.62-387.01c-28.16-43.22-57.54-118.45-84.82-154.53
	c-39.57-52.38-79.6-58.82-123.79-125.76c-2.54-26.04-1.11-53.31-0.55-79.55c-68.87-99.36-21.44-105.23-67.61-180.77
	c34.76-42.4,87.84-91.39,128.77-127.87C146.81,585.6,146.85,498.58,149.48,411.67z M601.75,1512.18
	c50.1,32.62,144.16,107.29,199.46,94.58c16.99-3.86,49.14-23.26,65.56-32.88c84.4-48.58,167.8-99.57,229.61-177.06
	c-95.97-2.83-194.92-0.67-291.15,0.26C671.86,1397.12,663.27,1387.4,601.75,1512.18z"/>
<path class="st0" d="M801.71,282.11l-5.44-9.21c13.93-7.51,50.32-3.45,69.04-3.14c144.93,2.32,287.32,22.59,426.48,64.12
	c69.8,20.53,138.43,44.92,205.57,72.97c4.88,98.75,3.72,186.12-0.45,284.92c0.22,17.29,0.7,31.95-0.95,49.3
	c-107.53-140.37-268.47-165.64-433.47-164.51c5.49,171.35,1.92,358.81,1.96,531.34c-30.58-0.05-58.37,0.67-88.7-3.7
	c-5.17-17.34-6.68-10.03-0.21-23.31c14.1-4.63,22.12-0.72,36.92,3.04l6.27,1.6l6.65-5.04c3.59-68.13,10.61-458.22-4.74-496.97
	c-1.18-2.93-2.55-5.81-3.8-8.75l-3.63-8.65c-0.92-2.06-1.83-4.12-2.74-6.17c5.54-3.34,100.24-28.61,121.27-35.76
	c-94.06-31.59-143.32-59.79-224.34-116.19c-19.17-13.33-44.5-22.44-57.78-39.26c6.29-0.87,39.4,5.61,47.84,7.05
	c-25.88-18.22-51.4-36.95-76.56-56.14L801.71,282.11z"/>
<path d="M801.71,282.11l-5.44-9.21c13.93-7.51,50.32-3.45,69.04-3.14c144.93,2.32,287.32,22.59,426.48,64.12
	c69.8,20.53,138.43,44.92,205.57,72.97c4.88,98.75,3.72,186.12-0.45,284.92c-33.44-32.83-60.73-53.15-97.78-81.35
	c-0.02-44.72-0.38-89.48-1.1-134.2c-186.57-68.69-257.77-84.75-454.53-102.04C894.11,336.19,859.79,306.44,801.71,282.11z"/>
<path class="st0" d="M1687.36,1306.1l210.74,0.57c-7.42,19.55-16.38,41.22-22.14,61.03c-65.89-7.77-149.35-12.4-216.04-15.9
	L1687.36,1306.1z"/>
<path class="st0" d="M417.04,519.22c2.95-0.1,5.9-0.05,8.85,0.21c20.41,1.7,92.07,50.53,90.4,75.44c-17.29-0.41-12.99-3.04-26,4.01
	c44.64,145.78,47.1,151.33-81.3,241.69c16.12-43.28,23.4-55.37,46.6-96.02c-62.2,24.9-89.26,37.67-134.14,88.56
	c56.76,91.13,18.09,142.79-84.86,121.85c-32.8-12.92-78.46-27.89-89.34-64.17c3.49-36.23,51.93-67.05,75.9-100.96
	c-59.43,6.43-82.36,4.99-142.59,2.32c29.23-28.56,146.5-131.27,156.23-158.02c-9.52-1.08-16.75-2.06-26.16-3.86
	c3.67-29.07,71.73-83.21,96-102.97c17.97,4.27-3.01,13.64,14.75,32.62C342.3,554.52,394.67,529.35,417.04,519.22z"/>
<path d="M320.35,633.81c44.43-0.72,72.11,4.17,116.52,10.86c-46.74,31.29-57.37,36.69-111.51,48.73
	c-32.15,20.02-46.52,33.91-74.28,60.15C273.35,713.16,296.44,673.23,320.35,633.81z"/>
<path class="st0" d="M583.87,678.07c29.08,17.65,74.95,79.66,90.94,110.74c50.52,98.13,60.07,162.35,29.4,266.55
	c-0.14-71.32-5.2-96.64-28.27-163.53c-4.86,272-235.43,288.88-139.16,580.28c-68.87-96.89-92.92-170.58-84.83-289.34
	c20.82-159.41,109.24-209.89,110.56-408.52c43.3,152.93-1.19,198.42-50.81,339.56c-12.33,35.09-19.64,79.55-25.62,116.45
	C608.77,994.47,712.42,954.13,583.87,678.07z"/>
<path class="st0" d="M706.72,718.66c82.16,31.29,170.96,232.84,171.39,320.27c0.52,107.19-31.43,149.33-96.4,224.04
	c47.01-97.36,70.76-159.1,47.52-268.04c-15.63,76.1-28.08,107.75-69.52,173.41c-66.04,90.31-112.49,134.56-168.19,236.65
	c28.6-190.54,146.06-214.57,189.21-386.44C808.04,909.78,763.51,809.74,706.72,718.66z"/>
<path class="st0" d="M815.68,1304.35c105.52,7.2,217.45-0.62,322.2,2.47c54.61,1.59,299.39-7.56,323.38,10.45
	c7.52,13.22,7.29,6.79,4.57,19.3c-17.04,11.94-24.54,7.77-48.53,7.92c-219.05-0.05-445.62-3.91-663.94,0.51L815.68,1304.35z"/>
<path class="st0" d="M945.24,1160.58c139.8-1.7,276.52,2.78,417.47-1.49c-18.23,38.03-23.87,56.55-34.88,97.05
	c-121.76-6.54-293.69-1.03-418.66-0.88c-11.92,0.15-16.16-0.41-28.04-1.54l-3.53-5.61c47.54-35.04,352.88,3.76,413.73-19.66
	c10.81-17.44,10.36-16.42,12.83-36.89c-18.15-12.71-314.19-2.68-369.24-8.39l-2.9-6.59L945.24,1160.58z"/>
<path class="st0" d="M1184.06,817.41c12.51,13.89,22.45,58.15,41.33,66.58c94.61,42.14,207.91,24.18,309.02,45.9
	c76.77,16.52,183.71,35.76,251.99,77.44c23.96,14.61,27.77,68.9,31.46,96.33c-15.26-14.56-30.17-54.24-39.55-75.44
	c-141.48-58.2-281.84-78.11-431.93-97.82C1254.43,918.37,1198.54,919.35,1184.06,817.41z"/>
<path class="st0" d="M481.45,931.23c-0.46,18.99-17.56,52.79-26.2,70.39c-57.52,117.37-90.91,199.4-73.4,330.3
	c-32.09-36.38-48.94-62.47-70.28-105.13c-15.9-47.7-16.58-72.14-18.24-120.87c17.01,44.3,26.5,70.8,50.18,111.25
	C365.28,1082.83,402.67,1040.58,481.45,931.23z"/>
<path class="st0" d="M144.15,955.37c53,17.96,104.67,39.62,154.63,64.78c-30.49,24.75-41.86,35.35-68.21,64.42
	c-5.14-19.66-0.09-15.85-11.64-25.21c-12.98,12.04-16.04,27.17-22.71,44.77C136.02,1056.74,101.58,1034.3,144.15,955.37z"/>
<path class="st0" d="M714.87,588.89c46.04,22.44,82.14,43.28,120.92,77.7c65.74,57.84,105.73,139.5,111.11,226.92
	c3.5,20.33,9.09,64.68-0.22,83.62c-4.82-13.94-5.81-16.41-7.93-30.87C893.03,778.41,839.55,704.87,714.87,588.89z"/>
<path class="st1" d="M946.9,893.52c3.5,20.33,9.09,64.68-0.22,83.62c-4.82-13.94-5.81-16.41-7.93-30.87
	C947.2,933.55,946.09,910.08,946.9,893.52z"/>
<path class="st0" d="M681.67,393.05c103.56-5.92,181.18,50.63,261.32,106.41c-39.22-12.76-78.35-25.83-117.37-39.21
	c-110.25-37.41-184.32-46.93-296.19-19.19C587.16,409.25,617.61,400.4,681.67,393.05z"/>
<path class="st0" d="M1554.21,1212.86c18.46-5.76,38.61-1.03,52.53,12.4c13.92,13.43,19.39,33.4,14.26,52.07
	c-5.13,18.63-20.04,32.98-38.87,37.41c-27.68,6.54-55.54-10.03-63.06-37.46C1511.57,1249.85,1527.09,1221.4,1554.21,1212.86z"/>
<path class="st0" d="M581.76,314.99c53.65-3.86,79.02-0.41,131.25,9.31c-103.93,10.96-144.73,19.4-234.02,74.72
	c-33.6,25.11-54.37,43.64-85.32,72.25C445.88,376.37,471.73,341.02,581.76,314.99z"/>
<path class="st0" d="M1503.88,1087.76c86.97-24.49,154.35-24.44,234.56,20.43c20.22,11.32,72.91,47.34,77.89,69.05
	c-65.38,25.21-130.83-131.57-303.4-79.86L1503.88,1087.76z"/>
<path class="st0" d="M731.55,521.28c119.97,7.51,210.61,63.55,252.56,180.05c-12.15-9.98-34.78-36.48-46.03-49.55
	C881.66,586.27,801.83,567.59,731.55,521.28z"/>
<path class="st0" d="M588.22,479.39c44.83-2.62,90.04,0.15,86.12,63.7c-1.23,20.02-13.52,50.22-30.68,61.9l-4.84-3.14l4.63-24.24
	c0.48-19.4,3.47-33.65-6.76-49.4c-28.02-22.54-66.27-16.21-102.75-14.1l0.89-6.54C553.73,490.2,563.96,488.29,588.22,479.39z"/>
<path class="st0" d="M1174.08,625.68c99.68,14.97,190.79,45.85,265.99,117.01l2.65,9.62c-9.5,3.04-23.45,5.76-31.98-0.1
	c-83.07-56.91-128-95.56-230.61-114.18L1174.08,625.68z"/>
<path class="st0" d="M394.42,329.7l3.79,4.27c-33.13,66.12-34.69,67.82-46.3,140.89C316.93,433.85,359.82,360.63,394.42,329.7z"/>
<path class="st0" d="M81.46,851.58c31.52,14.97,47.63,46.11,37.35,80.07l-12.42,2.62C82.16,914.15,84.96,885.13,81.46,851.58z"/>
<path class="st0" d="M285.7,420.83c5.66,31.65-1.38,67.15-23,91.44C250.69,478.05,267.34,448.41,285.7,420.83z"/>
<path class="st2" d="M1503.88,1087.76l9.05,9.62c-22.6,8.28-55.2,25.93-77.58,37.15C1460.77,1111.23,1473.28,1103,1503.88,1087.76z"
	/>
<path class="st2" d="M1180.12,638.03c-22.76-2.47-29.93-2.83-51.4-9.62l-1.83-5.09c16.48-2.73,30.54,0.26,47.19,2.37L1180.12,638.03
	z"/>
</svg>
