<?xml version="1.0" encoding="utf-8"?>
<!-- Generator: Adobe Illustrator 27.9.0, SVG Export Plug-In . SVG Version: 6.00 Build 0)  -->
<svg version="1.1" id="katman_1" xmlns="http://www.w3.org/2000/svg" xmlns:xlink="http://www.w3.org/1999/xlink" x="0px" y="0px"
	 viewBox="0 0 1920 1920" style="enable-background:new 0 0 1920 1920;" xml:space="preserve">
<style type="text/css">
	.st0{fill:#06203B;}
	.st1{fill:#EB7627;}
	.st2{fill:#DB5D2D;}
	.st3{fill:#FEFEFE;}
	.st4{fill:#FEE0CC;}
	.st5{fill:url(#SVGID_1_);}
	.st6{fill:#B98160;}
</style>
<path class="st0" d="M1296.11,1381.89c-39.69,41.33-83.31,83.54-131.15,125.77c-119.55,105.52-238.03,186.97-345.21,249.85
	c-0.11-37.44-0.21-74.88-0.32-112.32c132.02-80.8,377.94-300.82,377.94-300.82c2.87-2.96,5.75-5.92,8.65-8.89
	c4.91-5.02,9.82-10,14.71-14.94c41.87,0.54,83.73,1.08,125.6,1.62"/>
<path class="st0" d="M481.58,242.93l6.69-0.43l1.1,2.7c-4.61,13.05-21.01,41.46-28.29,55.92c147.22-87.24,294.57-19,423.62,65.73
	c-20.27,0.49-34.71,0.84-54.66,3.54c97.23,50.32,189.52,134.79,297.65,154.93c-34.61,18.59-91.21,36.58-130.32,37.62
	c7.16,8.63,25.22,30.21,26.11,39.89c5.17,56.23,2.92,131.67,2.15,187.65c-1.44,105.11,2.03,212.57-1.47,316.63
	c-16.15-5.7-23.23-12.66-36.42-23.19l-17.05,45.19l93.15-0.22c2.42-63.04,0.5-138.1,0.54-201.92c0.8-115.17,0.79-230.35-0.04-345.52
	c80.99-1.19,175.14,11.91,250.83,38.85c160.22,57.02,197.57,146.07,264.59,284.61c55.36,22.66,226.69,55.35,259.14,89.77
	c32.33,34.29,37.11,120.21,42.76,167.41c1.39,11.57,1.57,25,4.59,36.13c4.36,16.05,22.37,25.41,25.8,43.45
	c5.36,28.24,1.99,60.17,0.95,88.81c-57.86,4.8-156.62,0.7-219.42,1.68c-10.89,20.82-16.18,29.94-30.01,48.91
	c44.86,1.26,89.69,3.71,134.42,7.35c26.82,3.04,61.11,5.29,87.99,6.46c-3.02,3.94-6.07,7.86-9.13,11.76
	c-10.11,13.08-12.37,16.12-29.7,16.96c-46.39,2.25-92.96,1.24-139.38,1.12c-78.67-0.63-157.34-0.79-236.01-0.46l-796.9,0.66
	c-42.3,37.11-58.53,62.11-83.39,112.31c69.73,45.5,112.33,71.32,187.72,110.41c-0.26,36.78-0.16,73.55,0.31,110.33
	c-29.27-6.66-78.17-33.64-106.07-48.21c-152.51-79.66-282.77-195.08-379.13-337.74c-36.34-53.8-62.53-119.12-96.55-171.89
	c-24.38-37.82-102.01-71.7-120.63-120.88c-10.22-27.01-1.37-47.87-5.96-74.98c-3.35-20.4-31.82-49.24-34.86-67.86
	c-9.67-59.22-0.77-71.6-31.29-127.71c48.23-52.45,79.82-84.27,131.95-132.72c-10.73-77.5-6.45-185.87,1.75-263.58
	c29.17-13.57,58.81-26.09,88.87-37.54c32.43-12.34,55.43-21.12,62.04-23.56C326.66,337.67,385.92,309.15,481.58,242.93z
	 M1027.72,1330.54c0,0-149.74-0.16-224.6,0.35c-20.61,14.58-41.59,29.82-62.5,43.88c160.9-8.54,347.87-0.62,390.79-1.64
	s320.7,9.17,353.06,1.25c0.2-1.62-1.54-2.26-9.9-14.77c-10.58-15.84-14.24-24.47-16.95-28.28c-6.71-9.44-23.28-2.32-85.5-1.43
	 M1562.03,1233.22c-29.9,7.6-47.95,38.04-40.28,67.92c7.67,29.88,38.15,47.85,68.02,40.11c29.76-7.72,47.65-38.07,40.01-67.85
	C1622.13,1243.61,1591.82,1225.65,1562.03,1233.22z"/>
<path class="st1" d="M1117,631.53c13.03-0.43,47.48,1.06,59.84,3.58c96.85,5.94,206.47,51.52,271.51,125.74
	c2.28,2.57,4.49,5.2,6.64,7.88l-48.34-0.24c-29.18-0.49-203.1-4.33-216.17,1.75c-8.1,14.61-0.47,29.63-1.34,43.49
	c9.64,51.86,19.2,98.28,81.39,107.13c96.71,13.76,196.21,14.28,292.57,31.18c65.24,13.6,129.24,34.53,192.88,54.13
	c12.55,3.87,43.37,13.04,51.05,22.79c20.54,26.09,20.69,78.21,27.43,110.2c-3.92-4.25-11.61-12.13-14.64-16.46
	c-89.26-54.63-178.1-90.22-285.44-65.82c-52.15,10.96-88.15,39.1-127.49,72l-293.43-0.17l0.15-342.48
	c0.01-26.3-1.8-132.77,1.48-153.07L1117,631.53z"/>
<path class="st2" d="M1115.09,633.16c1.57,16.68,1.45,28.69,1.28,45.41c52.83,2.3,95.04,14.07,143.86,35.29
	c-51.82-4.79-91.68-4.74-143.86-4.62c-0.28,87.73-3.12,197.5-0.32,284.43c82.07,0.82,162.16,2.99,243.88,12.41
	c21.96,2.53,56.61,4.8,76.68,11.02l0.48,1.77c-53.11,6.97-131.42,0.51-191.1,7.8c46.47,3.56,258.8,14.91,288.38,30.21
	c-52.15,10.96-88.15,39.1-127.49,72l-293.43-0.17l0.15-342.48C1113.63,759.92,1111.82,653.46,1115.09,633.16z"/>
<path class="st3" d="M1819.82,1122.69c-25.34-85.88-19.08-71.48-101.14-99.33c-141.66-48.22-290.5-63.87-438.29-81.7
	c-66.22-7.99-105.69-62.95-91.25-127.92c9.64,51.86,19.2,98.28,81.39,107.13c96.71,13.76,196.21,14.28,292.57,31.18
	c65.24,13.6,129.24,34.53,192.88,54.13c12.55,3.87,43.37,13.04,51.05,22.79c20.54,26.09,20.69,78.21,27.43,110.2
	C1830.54,1134.9,1822.86,1127.03,1819.82,1122.69z"/>
<path class="st3" d="M1176.84,635.11c96.85,5.94,206.47,51.52,271.51,125.74c2.28,2.57,4.49,5.2,6.64,7.88l-48.34-0.24
	c-59.08-77.94-159.73-113.92-253.07-128.6C1161.59,639.21,1169.02,637.04,1176.84,635.11z"/>
<path class="st4" d="M1117,631.53c13.03-0.43,47.48,1.06,59.84,3.58c-7.82,1.93-15.25,4.1-23.26,4.78
	C1141.05,638.51,1126.91,638.44,1117,631.53z"/>
<path class="st1" d="M408.25,522.52c36.21-4.53,94.89,56.83,115.15,83.77c-16.01-2.12-29.76-2.39-45.88-2.91
	c64.13,134.67,46.59,167.8-79.35,250.59c12.98-33.42,28.8-66.78,44.03-99.23c-51.59,20.75-90.1,46.79-127.26,87.55
	c15.6,37.94,55.26,79.55,0.98,117.63c-26.44,18.54-56.48,18.68-87.23,12.71c-77.28-27.56-154.83-77.13-53.07-126.37
	c9.96-4.82,37.59-34.43,27.04-46.82c-10.14-1.68-23,6.03-33.08,10.54c-32.12-5.53-70.77-4.82-103.71-4.95
	c16.93-17.59,153.19-148.58,153.12-158.08c-8.79-0.55-13.12-0.24-21.33-3.71c-3.37-7.62-0.63-17.06,0.47-26.59
	c11.62-12.27,83.78-73.91,98.52-85.39l3.52,0.77c3.9,10.55,3.37,25.74,3.76,37.44C340.5,555.98,370.95,535.37,408.25,522.52z"/>
<linearGradient id="SVGID_1_" gradientUnits="userSpaceOnUse" x1="-35.6862" y1="1162.6333" x2="-53.4322" y2="1342.843" gradientTransform="matrix(0.5 0 0 -0.5 355.5 1316.5)">
	<stop  offset="0" style="stop-color:#271A1A"/>
	<stop  offset="1" style="stop-color:#0A233C"/>
</linearGradient>
<path class="st5" d="M319.09,643.12c30.63-1.98,76.34,3.06,106.73,8.62c-18.5,9.79-42.38,27.44-59.85,34.85
	c-21.92,9.3-32.93,0.79-58.09,17.1c-22.08,16.57-41.58,33.36-64.76,50.22c21.23-33.06,43.16-65.49,58.43-101.84
	C303.97,646.3,313.46,644.93,319.09,643.12z"/>
<path class="st1" d="M678.19,952.41l-3.94,7.59c0,0,0,0,0,0c-5.3,12.76-4.95,12.7-7.6,24.86
	c-33.64,167.63-176.23,238.72-160.25,414.93c2.82,31.09,12.27,61.13,21.37,90.91c-59.8-70.12-95.74-180.1-86.59-270.95
	c17.67-175.45,129.2-237.3,114.42-431.2c0,0,0,0,0,0c48.8,130.51,16.82,171.84-32,297.67c-9.34,24.09-22.23,51.3-26.22,76.82
	c-5.12,56.92,0.04,51.49,0.04,51.49s97.05-141.41,124.09-225.06c35.86-110.94,3.3-213.85-48.19-313.67c0,0,0,0,0,0
	c80.89,79.89,135.6,167.13,146.1,282.3c2.44,34.3,0,55.64-7.96,83.77l-9.08,27.59c-0.01,0.03-0.02,0.05-0.02,0.08
	c-1.12,5.4-4.84,15.78-6.7,21.44l0.45-65.78c0,0,0,0,0,0c-1.48-15.56-2.26-26.54-6.01-41.74"/>
<path d="M719.44,958.1"/>
<path d="M711.47,1041.87"/>
<path class="st1" d="M695.58,716.34c146.69,128.73,267.95,380.93,105.18,544.82l-10.39-2.08c34.22-76.38,60.08-164.86,33.43-248.41
	c-15.95,132.29-77.19,194.19-157.21,293.99c-29.87,37.25-59.52,84.37-79.77,127.18c12.32-130.48,67.07-168,133.78-271.02
	C823.88,1001.36,789.5,865.16,695.58,716.34z"/>
<path class="st2" d="M1436.33,1164.88c38.54-45.26,88.4-70.56,147.63-73.91c106.19-6.01,180.99,37.39,250.19,111.84l-53.57,2.53
	c-10.06,0.13-20.12,0.31-30.18,0.55c28.45,20.41,36.85,25.86,72.27,32.23c15.12,2.21,26.83,4.32,41.74,7.62
	c1.51,10.42,5.01,23.77,0.71,32.63c-9.13,4.96-9.19,3.09-21.25,2.97h-128.06c-2.32-24.65-9.21-48.41-22.2-69.62
	c-19.39-31.39-50.64-53.6-86.66-61.59c-37.04-8.33-75.87-1-107.34,20.23c-43.34,28.84-55.26,62.97-64.58,110.8l-48.99,0.12
	C1391.63,1243.39,1406.97,1191.21,1436.33,1164.88z"/>
<path class="st3" d="M1436.33,1164.88c38.54-45.26,88.4-70.56,147.63-73.91c106.19-6.01,180.99,37.39,250.19,111.84l-53.57,2.53
	c-40.02-54.98-103.83-92.17-171.62-96.76c-38.36-2.6-86.74,3.04-121.51,20.5c-13.99,7.03-36.59,27.35-48.44,37.59L1436.33,1164.88z"
	/>
<path class="st1" d="M1822.66,1238.11c15.12,2.21,26.83,4.32,41.74,7.62c1.51,10.42,5.01,23.77,0.71,32.63
	c-9.13,4.96-9.19,3.09-21.25,2.97c-5.73-18.82-14.93-24.31-25.27-40.38L1822.66,1238.11z"/>
<path class="st2" d="M940.83,1178.71l275.18,0.4c49.16-0.04,105.23-1.41,153.83,0.13c-3.59,5.94-9,15.58-12.94,20.93
	c-13.35,31.24-17.99,47.55-24.54,81.01l-470.8-0.08l24.91-24.91c134.58,1.94,272.37,0.45,407.19,0.38l9.99-34.27
	c-126.6-4.3-259.71,3.05-387.44-1.7l14.34-19.77L940.83,1178.71z"/>
<path class="st3" d="M940.83,1178.71l275.18,0.4c49.16-0.04,105.23-1.41,153.83,0.13c-3.59,5.94-9,15.58-12.94,20.93
	c-142.11-0.8-284.23-0.58-426.34,0.66L940.83,1178.71z"/>
<path class="st2" d="M481.83,929.83c-1.07,20-19.44,59.69-28.08,78.06c-60.26,128-99.49,203.2-80.63,348.13
	c-35.88-37.38-52.95-62.6-73.77-109.12c-17.86-42.91-15.02-79.1-12.24-123.88c19.67,53.21,16.05,62.11,46.9,116.05
	C339.47,1111.05,418.17,1034.8,481.83,929.83z"/>
<path class="st1" d="M138.14,970.64c15.25,1.92,135.65,54.67,152.62,64.8c-39.63,32.32-37.41,29.35-68.58,67.48l-3-1.81
	c-2.09-8.13-2.99-17.87-9.11-22.49l-4.51,1.58c-8.56,12.61-12,34.72-14.76,49.87c-23.92-19.21-59.86-46.21-75.88-71.72
	c-0.56-23.15-0.03-39.59,1.5-62.72C124.11,984.18,128.54,980.25,138.14,970.64z"/>
<path class="st1" d="M717.12,602.74c133.04,41.65,225.34,180.23,233.79,315.58c2.01,32.18,0.1,61.21-2.69,93.06
	c-4.66-0.7-4.42-8.21-5.23-13.06c-21.21-125.83-75.88-240.83-163.35-334.35C759.79,642.75,737.77,623.49,717.12,602.74z"/>
<path class="st1" d="M658.08,393.1c100.06-17.15,221.62,61.49,298.57,119.34c-33.06-10.03-69.87-24.56-102.64-36.73
	c-122.77-44.36-201.63-62.84-330.17-34.41C572.79,413.31,601.86,400.83,658.08,393.1z"/>
<path class="st1" d="M582.02,314.46c43.75-4.85,84.27,0.95,126.26,12.8c-101.71,2.11-171.71,26.78-253.01,86.6
	c-25.25,20.2-48.54,44.58-71.08,67.77C425.23,383,472.93,330.81,582.02,314.46z"/>
<path class="st1" d="M721.82,530.52c112.83-11.9,243.36,76.73,264.43,188.9c-12.75-12.34-31.23-40.86-47.67-56.42
	C873.74,601.59,801.2,567,721.82,530.52z"/>
<path class="st1" d="M594.97,478.78c2.08-0.23,4.17-0.42,6.25-0.55c72.29-4.68,80.69,51.19,58.5,107.74
	c-8.08,20.59-18.98,31.45-33.88,46.94c7.25-21.69,10.24-34.48,13.07-56.94c-2.2-81.28-43.64-62.51-104-44.16l-25.63-17.37
	C540.54,496.4,559.9,486.26,594.97,478.78z"/>
<path class="st1" d="M391.62,326.04c-0.48,3.59-0.09,3.19-1.74,6.24c-32.12,59.58-38.19,96.6-51.4,159.11l-3.09,0.26
	C316.16,421.12,328.39,368.57,391.62,326.04z"/>
<path class="st1" d="M69.91,862.64c26.38,14.74,54.28,56.01,34.46,85.62c-3.23,2.64-4.21,2.99-7.84,5.06
	C70.28,944.15,69.8,885.72,69.91,862.64z"/>
<path class="st1" d="M274.82,416.59c2.33,2.3,0.61,55.34,0.79,65.22c-8.45,11.67-18.22,21.04-28.25,31.37
	C229.16,495.88,262.68,433.56,274.82,416.59z"/>
<path class="st6" d="M790.37,1259.09l10.39,2.08l-23.72,23.54C781.03,1276.05,785.84,1267.5,790.37,1259.09z"/>
<path class="st1" d="M784.55,268.38c214.65-8.8,428.75,27.53,628.48,106.64c23.11,9.25,67.39,26.09,87.35,36.97
	c7.99,49.99,8.63,227.13,1.35,278.92c-8.85-1.06-47.64-37.66-58.89-45.82c-13.54-9.83-26.31-18.79-41.15-27.66
	c2.12-42.42,0.42-94.98-1.08-137.52c-141.04-56.54-298.85-96.12-451.75-106.65c-15-1.03-87.39-63.65-110.23-73.82
	C834.31,297.51,787.15,271.02,784.55,268.38z"/>
<path class="st0" d="M933.84,1035.84c1.73-3.67,3.16-6.96,4.1-9.61l-1.1-2.7l-6.69,0.43c-6.22,1.47-12.81,3.17-19.63,5.09
	C918.33,1031.21,926.1,1033.48,933.84,1035.84z"/>
<path class="st2" d="M779.49,1757.97"/>
<path class="st1" d="M1346.33,1466.33"/>
</svg>
